<?xml version="1.0" encoding="utf-8"?>
<!-- Generator: Adobe Illustrator 25.0.1, SVG Export Plug-In . SVG Version: 6.00 Build 0)  -->
<svg version="1.1" id="레이어_1" xmlns="http://www.w3.org/2000/svg" xmlns:xlink="http://www.w3.org/1999/xlink" x="0px"
	 y="0px" viewBox="0 0 700 700" style="enable-background:new 0 0 700 700;" xml:space="preserve">
<style type="text/css">
	.st0{fill:#E6E6E6;}
</style>
<g>
	<path class="st0" d="M674.47,487.13c-1.41,2.44-6.33,10.22-14.77,23.33c-8.45,13.12-15.14,23.17-20.08,30.17
		c-4.94,7.01-13.03,17.33-24.26,30.94c-11.24,13.63-22.47,25.07-33.68,34.33c-11.22,9.26-25.56,19.33-43.02,30.2
		c-17.47,10.88-36.22,20.41-56.27,28.61c-89.48,36.58-173.75,37.09-252.81,1.51C150.52,630.65,93.2,569.36,57.63,482.35
		c-35.79-87.53-37.11-171.87-3.97-253.02C86.8,148.2,150.94,88.17,246.08,49.27c57.59-23.54,128.65-37.65,213.18-42.3l68.78,124.2
		l-5.96,5.24C462.14,95.5,411.24,69.75,369.39,59.13c-41.85-10.6-83.1-7.61-123.71,9c-67.88,27.75-108.59,75.7-122.14,143.85
		s-2.76,145.2,32.38,231.13c22.91,56.04,49.61,102.29,80.12,138.72c30.5,36.44,66.53,61.43,108.07,74.96
		c41.55,13.54,85.46,10.85,131.74-8.07c43.2-17.66,73.17-42.68,89.94-75.08c16.76-32.39,16.75-69.14-0.06-110.24
		c-11.56-28.28-23.5-50.5-35.81-66.66c-12.31-16.14-30.31-33.4-54.01-51.74l-0.65-1.6l151.18-61.81l0.65,1.6
		c-2.82,29.81-2.33,54.85,1.45,75.1c3.78,20.27,12.55,47.2,26.29,80.83L674.47,487.13z"/>
</g>
</svg>
