<?xml version="1.0" encoding="utf-8"?>
<!-- Generator: Adobe Illustrator 25.0.1, SVG Export Plug-In . SVG Version: 6.00 Build 0)  -->
<svg version="1.1" id="레이어_1" xmlns="http://www.w3.org/2000/svg" xmlns:xlink="http://www.w3.org/1999/xlink" x="0px"
	 y="0px" viewBox="0 0 1073 700" style="enable-background:new 0 0 1073 700;" xml:space="preserve">
<style type="text/css">
	.st0{display:none;fill:none;stroke:#000000;stroke-width:7;stroke-miterlimit:10;}
	.st1{fill:none;stroke:#FFFFFF;stroke-width:11;stroke-miterlimit:10;}
</style>
<image style="display:none;overflow:visible;enable-background:new    ;" width="1422" height="1328" xlink:href="9FA1DC8A3B046802.png"  transform="matrix(1.0311 0 0 1.0311 -176 -118)">
</image>
<path class="st0" d="M-714.5,1759.5c0,0,125.9-106.9-174-153c-13-2-21.7-2.4-32.5-3c-77.1-3.8-397.7-12.9-435.5,120
	c0,0-21.7,117.3,374.3,149.3c6.2,0.5,14.4,0.7,20.7,0.6c49.3-0.6,267.6-8.2,315.2-91.6c8.2-14.4,5.9-32.4-5.8-44.1
	c-33.9-33.8-152.1-94.9-563.4-122.3c0,0-120-5-124-2"/>
<path class="st1" d="M933.8,392.6c0,0,86.2-80.6-61.2-165.8c0,0-243.4-120.2-573-50.2c0,0-305.2,62.8-259,199.4
	c0,0,81,173.2,555.2,191.4c0,0,335.2,7.6,432.5-138.4c0,0,105.7-100.4-421.4-209.9c0,0-168.3-44.1-539.6-50.2"/>
</svg>
