<?xml version="1.0" encoding="utf-8"?>
<!-- Generator: Adobe Illustrator 25.0.1, SVG Export Plug-In . SVG Version: 6.00 Build 0)  -->
<svg version="1.1" xmlns="http://www.w3.org/2000/svg" xmlns:xlink="http://www.w3.org/1999/xlink" x="0px" y="0px"
	 viewBox="0 0 121.22 76.74" style="enable-background:new 0 0 121.22 76.74;" xml:space="preserve">
<style type="text/css">
	.st0{stroke:#000000;stroke-width:0.75;stroke-miterlimit:10;}
	.st1{stroke:#000000;stroke-width:0.25;stroke-miterlimit:10;}
</style>
<g id="print">
</g>
<g id="uv">
	<g id="골드_1_">
		<g>
			<path d="M59.44,64.37c11.88-9.98,12.15-26.21,0.82-36.49H44.11v-2.29h17.23c13.33,11.12,13.33,29.26,0,40.38
				c-13.24,11.2-34.83,11.2-48.07,0c-13.33-11.12-12.19-27.79-1.37-39.2l3.62-0.02C3.37,36.97,3.03,54.16,15.18,64.37
				S47.29,74.58,59.44,64.37z"/>
			<path class="st0" d="M39.98,50.02h29.01v-1.86H42.16V27.68h24.65v-1.86H42.16V5.34h26.83V3.47H39.98V50.02z"/>
			<path class="st1" d="M39.98,27.86v-2.28h63.37c11.93,0,14.34,10.77,14.34,19h-2.53c0-6.93-1.42-16.71-11.81-16.71H39.98z"/>
			<polygon points="89.07,44.43 93.18,42.21 97.3,44.43 93.18,46.61 			"/>
			<g>
				<polygon points="23.48,26.78 26.59,25.11 29.69,26.78 26.59,28.43 				"/>
			</g>
		</g>
	</g>
</g>
</svg>
